#!OML:ASF I:\Actors\actors\Patient Classification 1\Patient 1\Session 1\Subject1.ASF
:FULLY-SPECIFIED
:DEGREES
731
root -0.684588 17.6134 8.24644 11.6127 -12.1972 -9.97895
lowerback 1.12435 0.345687 1.21457
upperback -11.3652 0.604467 0.939862
thorax -12.8995 0.206375 0.278425
lowerneck -13.8464 -1.42008 0.785373
upperneck 19.9526 -3.41178 5.48343
head 8.60287 -0.99558 1.323
rclavicle -2.42517e-014 -7.95139e-016
rhumerus 41.7829 20.7525 -66.5314
rradius 92.393
rwrist 5.43143
rhand -7.51453 -45.5013
rfingers 7.12502
rthumb 18.3759 -74.6533
lclavicle -2.42517e-014 -7.95139e-016
lhumerus 43.839 -30.6816 65.9853
lradius 88.4406
lwrist 16.8172
lhand -47.589 -29.267
lfingers 7.12502
lthumb -20.2734 -0.305061
rfemur -5.48924 20.7648 27.1728
rtibia 3.27535
rfoot -9.74636 -12.462
rtoes -1.36717
lfemur 8.1949 -46.4584 -13.7668
ltibia -4.39455
lfoot -35.1209 55.5132
ltoes 20.2179
732
root -0.715418 17.6122 8.23467 11.3498 -11.6911 -9.85971
lowerback 1.73245 0.512202 1.39578
upperback -11.8274 0.835269 0.64333
thorax -13.8302 0.270886 -0.178718
lowerneck -13.3214 -1.95099 -0.0455111
upperneck 20.4836 -4.2005 6.41414
head 8.74741 -1.33269 1.69192
rclavicle 4.73108e-014 4.29375e-014
rhumerus 39.1954 20.5641 -66.0585
rradius 94.5472
rwrist 5.78844
rhand -8.04759 -44.9628
rfingers 7.12502
rthumb 17.863 -74.1624
lclavicle 4.73108e-014 4.29375e-014
lhumerus 42.3812 -32.7577 67.2416
lradius 88.7972
lwrist 16.5142
lhand -47.777 -32.6703
lfingers 7.12502
lthumb -20.4542 -3.72765
rfemur -5.35902 20.6147 27.3118
rtibia 3.55481
rfoot -9.98393 -12.7215
rtoes -1.45604
lfemur 7.79207 -45.4913 -13.322
ltibia -4.30511
lfoot -32.6801 54.6661
ltoes 18.3916
733
root -0.749262 17.6099 8.22285 11.0428 -11.1246 -9.75784
lowerback 1.9654 0.66867 1.47987
upperback -11.9818 1.04264 0.425073
thorax -14.1578 0.34252 -0.497373
lowerneck -12.986 -2.50334 -0.947981
upperneck 20.7505 -4.99537 7.31607
head 8.85317 -1.68518 2.0619
rclavicle 3.97569e-015 1.74931e-014
rhumerus 36.8794 20.2451 -65.496
rradius 96.7219
rwrist 6.15022
rhand -8.82644 -44.2696
rfingers 7.12502
rthumb 17.1135 -73.5359
lclavicle 3.97569e-015 1.74931e-014
lhumerus 41.1352 -34.7263 68.3973
lradius 89.3327
lwrist 15.9431
lhand -47.6151 -35.4913
lfingers 7.12502
lthumb -20.2985 -6.53204
rfemur -5.17346 20.4134 27.4943
rtibia 3.82849
rfoot -10.202 -12.9633
rtoes -1.0292
lfemur 7.46522 -44.5819 -12.9037
ltibia -4.21644
lfoot -30.3303 53.8004
ltoes 16.4634
734
root -0.785047 17.6074 8.20907 10.7377 -10.4849 -9.72929
lowerback 1.99153 0.847419 1.59855
upperback -11.9866 1.28146 0.232314
thorax -14.1688 0.43042 -0.810316
lowerneck -12.5677 -3.14248 -1.70996
upperneck 20.7166 -5.8755 7.99129
head 8.84981 -2.10154 2.32033
rclavicle -2.38542e-014 -6.36111e-015
rhumerus 34.597 19.8665 -64.8514
rradius 99.0771
rwrist 6.35879
rhand -9.78815 -43.7819
rfingers 7.12502
rthumb 16.1876 -73.126
lclavicle -2.38542e-014 -6.36111e-015
lhumerus 39.9644 -36.8274 69.4262
lradius 90.0378
lwrist 14.7375
lhand -47.4825 -37.5017
lfingers 7.12502
lthumb -20.1711 -8.52895
rfemur -4.97976 20.1224 27.7705
rtibia 4.09686
rfoot -10.4016 -13.1974
rtoes -0.383501
lfemur 7.08686 -43.6456 -12.3504
ltibia -4.09679
lfoot -28.6907 52.6677
ltoes 15.5041
735
root -0.823299 17.6059 8.19315 10.3944 -9.76767 -9.69151
lowerback 1.99784 0.955343 1.70697
upperback -11.9485 1.4265 0.0830018
thorax -14.1164 0.478906 -1.05571
lowerneck -12.124 -3.77731 -2.67954
upperneck 20.6999 -6.72964 8.72757
head 8.86869 -2.51771 2.63907
rclavicle -1.59028e-014 -2.54444e-014
rhumerus 32.1634 19.7557 -64.2319
rradius 101.168
rwrist 7.48363
rhand -11.4109 -42.7284
rfingers 7.12502
rthumb 14.6246 -72.1927
lclavicle -1.59028e-014 -2.54444e-014
lhumerus 38.7058 -38.8778 70.2816
lradius 90.8181
lwrist 12.9829
lhand -47.3534 -38.7537
lfingers 7.12502
lthumb -20.047 -9.76792
rfemur -4.75684 19.8731 28.0626
rtibia 4.40308
rfoot -10.7145 -13.5254
rtoes 0.437953
lfemur 6.62614 -42.5227 -11.719
ltibia -3.93885
lfoot -26.562 51.3515
ltoes 13.9707
736
root -0.864181 17.6037 8.17528 9.96462 -8.96463 -9.65249
lowerback 2.05856 0.953875 1.81192
upperback -11.8538 1.4307 0.00775639
thorax -14.0355 0.466724 -1.19822
lowerneck -11.7911 -4.37059 -4.0018
upperneck 20.8317 -7.51935 9.64603
head 8.99131 -2.90734 3.08854
rclavicle -1.59028e-015 7.95139e-015
rhumerus 29.5718 20.0016 -63.75
rradius 103.393
rwrist 8.58258
rhand -12.8053 -42.0775
rfingers 7.12502
rthumb 13.2808 -71.6343
lclavicle -1.59028e-015 7.95139e-015
lhumerus 37.306 -40.756 71.0194
lradius 91.5849
lwrist 10.87
lhand -47.1648 -39.818
lfingers 7.12502
lthumb -19.8657 -10.8133
rfemur -4.4512 19.6402 28.3988
rtibia 4.69598
rfoot -11.0934 -13.9121
rtoes 1.02943
lfemur 6.18925 -41.3423 -11.1089
ltibia -3.70541
lfoot -23.8689 49.9736
ltoes 11.4224
